<svg xmlns="http://www.w3.org/2000/svg" viewBox="0 0 193 193" width="193" height="193">
	<style>
		tspan { white-space:pre }
		.shp0 { fill: #ffffff } 
		.shp1 { fill: #2b73b9 } 
		.shp2 { fill: #ce3d53 } 
	</style>
	<g id="Layer">
		<path id="Layer" fill-rule="evenodd" class="shp0" d="M17.14 80.42C17.14 80.42 15.77 80.08 15.43 79.22C15.26 78.54 15.6 77.34 15.6 77.34L39 49.34C39 49.34 39.68 48.14 41.22 47.46C43.1 46.6 44.8 46.6 44.8 46.6L79.64 46.6C96.72 30.55 121.31 31.57 121.31 31.57C157.34 31.57 186.03 61.12 186.03 96.3C186.03 131.48 158.54 161.19 121.14 161.19C86.64 161.19 71.44 137.97 71.44 137.97L55.9 137.97C55.9 137.97 45.49 150.26 33.02 148.73C21.39 147.22 8.29 141.29 6.72 122.09L6.72 113.89C8.6 88.1 24.82 80.42 24.82 80.42L17.14 80.42Z" />
		<path id="Layer" fill-rule="evenodd" class="shp1" d="M61.54 96.47L61.54 96.47L51.98 96.47C51.47 96.47 51.29 96.81 51.64 96.98C52.32 97.5 53.51 98.35 52.83 100.74L48.05 119.01C47.71 119.87 47.02 121.58 46.34 121.92C45.15 122.94 45.49 123.11 46.34 123.11L55.39 123.11C56.59 122.94 56.08 122.6 55.73 122.26C55.05 121.75 54.54 120.04 54.88 118.5C55.22 117.31 58.98 102.45 59.49 101.08C60 99.37 60.34 98.01 61.54 97.33C63.08 96.3 62.39 96.47 61.54 96.47ZM44.63 122.6C45.66 120.38 46.51 116.45 46.68 115.94C47.02 114.91 46.68 114.4 46.17 115.59C42.93 121.4 39.51 121.57 37.46 121.57C36.27 121.57 35.92 120.89 36.27 119.86C36.61 118.84 40.88 102.45 41.39 101.08C41.73 99.72 43.27 97.67 44.29 97.32C44.97 96.98 45.83 96.47 44.12 96.47L33.02 96.47C32.51 96.64 32.34 96.64 32.68 96.81C33.36 97.49 35.41 98.01 34.73 100.91L30.12 118.16C29.78 119.53 28.41 121.92 27.39 122.43C26.53 122.77 26.53 123.11 27.39 123.11L44.12 123.11C44.46 123.11 44.46 123.11 44.63 122.6ZM121.65 116.11C121.99 115.08 121.99 114.57 121.14 115.77C116.87 121.58 116.19 122.09 110.04 122.09C108.67 122.09 108.5 120.89 108.84 120.04C108.84 119.52 110.04 115.08 111.24 110.64C111.58 109.28 112.6 109.28 113.11 109.28C114.14 109.28 116.36 110.64 116.36 114.4C116.36 115.59 116.7 115.08 117.04 114.06L119.43 104.5C119.77 102.96 119.26 103.64 118.41 104.67C117.21 106.03 115.68 107.57 113.11 107.57C112.43 107.57 112.26 106.89 112.6 106.03C113.11 103.47 113.8 100.74 114.31 99.37C114.82 97.67 114.99 97.67 116.36 97.67C118.75 97.84 122.51 97.15 122.51 102.62C122.51 103.98 122.85 103.98 123.19 102.62C123.7 100.91 124.38 97.84 124.56 96.98C124.73 96.3 124.39 96.47 123.36 96.47L105.77 96.47C105.43 96.47 104.75 96.47 105.09 96.81C106.28 97.67 107.99 97.67 107.14 101.08L102.87 117.99C102.7 119.18 101.16 121.74 99.97 122.26C98.94 122.6 98.94 122.94 99.97 122.94L118.24 122.94C119.26 122.94 119.6 122.94 119.77 122.43C120.29 121.4 121.48 116.79 121.65 116.11Z" />
		<path id="Layer" fill-rule="evenodd" class="shp1" d="M137.19 97.84L137.19 96.3L137.19 96.3L137.19 97.84C137.19 97.84 137.19 97.84 137.19 97.84ZM137.19 96.3L140.1 96.3C144.7 96.3 146.75 98.01 146.75 102.28C146.75 105.69 143.51 108.43 139.92 109.45C138.9 109.79 138.9 110.31 139.75 110.99C140.61 111.5 141.12 112.18 141.12 113.72C141.46 118.67 141.29 121.58 143 121.41C144.53 121.41 145.22 118.84 146.41 114.06C146.75 112.35 147.27 112.35 147.1 113.55C146.75 120.55 151.71 123.28 154.1 121.92C159.05 119.01 154.95 114.06 150.68 108.08C147.95 103.99 148.97 95.11 157 95.11C158.03 95.11 159.9 96.13 161.1 96.3C161.95 96.3 163.83 95.96 164 95.96C164.52 95.62 164.69 95.45 164.34 96.64C164.34 96.98 163.49 100.23 162.81 102.45C162.29 104.16 162.29 103.64 162.29 102.28C162.29 94.42 153.07 96.64 155.29 101.25C156.15 103.3 159.73 107.57 161.27 110.99C164 117.31 160.42 123.63 153.24 123.63C150.51 123.8 149.83 122.26 148.12 122.43C146.07 122.43 145.56 123.46 144.19 123.46C144.02 123.46 143.34 123.28 143 123.11C142.66 123.46 141.8 124.48 139.58 124.48C136.34 124.48 134.8 121.58 134.8 120.21C134.8 118.5 135.14 116.28 134.12 112.52C133.61 110.47 132.07 110.3 131.73 111.67C131.22 114.57 130.53 116.28 130.19 117.82C129.85 119.35 129.68 121.23 131.38 122.09C132.58 122.77 132.41 122.94 131.9 122.94L120.8 122.94C119.94 122.94 120.45 122.6 121.31 122.26C121.99 121.92 122.85 120.38 123.36 118.67C124.38 115.26 127.46 102.96 127.63 101.25C128.14 97.5 127.12 97.5 126.26 96.81C125.92 96.47 126.09 96.3 126.95 96.3L137.19 96.3L137.19 96.3ZM137.19 97.84C136.17 97.67 135.49 98.18 135.31 99.03L133.09 107.4C132.92 108.77 133.95 109.45 135.83 108.43C136.51 108.08 137.7 107.74 138.73 106.21C140.78 103.3 140.1 100.06 139.58 99.21C139.07 98.35 138.22 97.67 137.19 97.84L137.19 97.84ZM65.81 96.47L75.88 96.47L75.88 97.49C75.03 97.49 74.18 97.84 73.83 99.2C73.83 99.2 71.96 106.03 71.27 108.25C70.93 109.62 72.47 109.79 74.35 108.94C78.45 107.4 78.79 100.91 78.45 99.71C78.1 98.18 77.08 97.49 75.88 97.49L75.88 96.47L78.62 96.47C82.37 96.47 85.28 97.67 85.11 102.28C85.11 105.01 82.72 107.91 80.15 109.28C77.42 110.64 75.03 110.99 72.81 110.81C71.1 110.64 70.93 110.64 70.42 112.01C69.74 114.74 69.39 115.94 69.05 117.47C68.71 118.84 68.37 121.23 69.91 122.09C71.61 123.11 70.76 123.11 70.25 123.11L60.51 123.11C59.49 123.11 58.98 122.94 60 122.26C61.2 121.4 62.22 118.67 62.39 117.47L66.83 100.74C67.35 98.18 65.98 97.33 65.13 96.81C64.78 96.47 64.95 96.47 65.81 96.47Z" />
		<path id="Layer" fill-rule="evenodd" class="shp1" d="M86.13 96.47C85.28 96.47 85.11 96.47 85.45 96.81C86.3 97.33 87.84 98.18 87.15 100.74L82.72 117.47C82.54 118.67 81.69 121.4 80.5 122.26C78.96 123.28 79.81 123.11 80.84 123.11L90.57 123.11C91.08 123.11 91.59 123.11 90.4 122.26C88.69 121.23 89.03 118.84 89.38 117.47C89.72 115.94 90.06 114.74 90.91 112.01C91.25 110.64 91.42 110.64 93.13 110.81C95.35 110.99 97.74 110.64 100.48 109.28C103.04 107.91 105.43 105.01 105.43 102.28C105.6 98.69 103.21 96.47 99.28 96.47L96.21 96.47L96.21 97.67C97.57 97.67 98.43 98.18 98.77 99.71C99.11 100.91 98.77 107.4 94.84 109.11C92.79 109.96 91.42 109.62 91.77 108.25C92.28 106.2 94.16 99.37 94.16 99.37C94.5 98.01 95.35 97.49 96.21 97.67L96.21 96.47L86.13 96.47Z" />
		<path id="Layer" fill-rule="evenodd" class="shp2" d="M137.88 131.82C138.22 136.77 136.68 145.82 133.44 150.6C158.2 145.31 176.64 123.11 176.64 96.64C176.64 83.32 172.54 72.05 164.69 62.48C158.88 65.22 140.44 66.58 128.31 63.68C117.38 61.12 111.75 57.87 109.7 55.99C107.82 56.16 103.21 58.9 102.53 59.07C105.77 60.95 114.14 68.8 116.53 73.24L162.47 73.24C163.66 73.24 164.52 74.27 164.52 74.78C164.52 75.29 164.18 75.63 163.83 75.63L27.55 75.63C27.38 75.63 27.04 75.46 27.04 75.12C27.04 73.75 28.41 73.24 29.77 73.24L68.2 73.24C68.88 71.53 69.56 69.83 70.42 68.29L31.65 68.29C31.48 68.29 31.31 68.12 31.31 67.78C31.31 66.92 32.34 66.41 33.02 66.41L71.61 66.41C72.64 64.7 73.83 63.17 75.03 61.63L37.46 61.63C37.29 61.63 36.95 61.46 36.95 60.95C36.95 60.26 37.97 59.41 39 59.41L76.74 59.41C78.1 57.7 79.81 55.65 80.84 54.97L44.46 54.97C44.29 54.97 43.95 54.63 43.95 54.29C43.95 53.6 44.8 52.75 45.83 52.75L83.4 52.75C93.64 44.04 106.97 38.4 121.65 38.4C153.59 38.4 179.54 64.53 179.54 96.47C179.54 128.57 153.59 154.53 121.65 154.53C103.04 154.53 85.28 145.48 75.03 131.82L33.7 131.82C32.51 131.82 31.99 130.62 31.99 130.11C31.99 129.6 32.34 129.09 32.68 129.09L157.17 129.09C158.37 129.09 158.2 129.26 158.2 129.77C158.2 131.14 157.17 131.82 155.29 131.82L137.88 131.82L137.88 131.82Z" />
		<path id="Layer" fill-rule="evenodd" class="shp0" d="M113.11 54.63C118.07 58.56 128.48 61.8 139.58 62.49C150.68 63.17 161.1 60.78 162.81 60.1C161.79 58.73 156.15 53.43 154.44 52.41C145.05 49.34 121.82 50.36 113.11 54.63L113.11 54.63Z" />
		<path id="Layer" fill-rule="evenodd" class="shp0" d="M110.72 52.24C108.16 50.87 107.82 45.24 110.21 42.5C125.58 39.6 138.73 42.85 148.47 48.48C144.2 47.63 124.39 46.6 110.72 52.24ZM95.01 131.82C94.33 133.19 89.21 138.99 87.16 140.02C85.45 138.99 79.64 133.36 78.79 131.82L95.01 131.82ZM129.68 151.29C122.68 152.31 114.48 151.97 109.36 150.6C110.72 147.53 112.26 136.26 111.92 131.82L135.15 131.82C135.15 141.04 131.22 149.75 129.68 151.29ZM109.36 131.82C109.7 136.6 108.33 146.51 106.62 149.92C102.87 149.24 93.65 144.97 89.38 141.72C91.08 140.7 97.4 133.36 98.25 131.82L109.36 131.82ZM78.45 62.15C80.33 62.32 84.6 63.68 86.47 65.05C85.11 65.9 79.13 71.88 77.93 73.25L71.44 73.25C72.3 70.68 76.4 64.02 78.45 62.15ZM81.69 73.25C83.06 71.71 87.33 67.61 89.04 66.59C90.4 67.44 95.01 71.71 95.7 73.25L81.69 73.25ZM91.77 65.05C92.45 64.19 98.26 60.61 99.45 60.44C101.84 61.46 110.55 69.15 112.6 73.25L99.45 73.25C97.92 70.51 93.99 66.41 91.77 65.05ZM89.03 63.17C87.16 61.8 82.03 59.92 80.33 59.75C81.01 58.9 83.57 56.34 84.94 54.97C86.99 54.97 93.99 57.19 95.87 58.73C94.33 59.24 89.72 62.32 89.03 63.17ZM87.84 52.92C92.45 48.82 101.67 44.72 106.79 43.36C105.26 45.75 105.6 51.9 107.48 53.09C106.28 53.6 100.48 56.17 99.11 57.19C97.06 56 91.08 53.09 87.84 52.92Z" />
		<path id="Layer" fill-rule="evenodd" class="shp1" d="M69.91 81.27L71.79 81.27L70.42 87.93L74.35 87.93L74.01 89.47L68.2 89.47L69.91 81.27ZM85.28 84.69C85.28 87.25 83.74 89.64 81.01 89.64C78.62 89.64 77.42 88.27 77.42 86.05C77.42 83.49 78.96 81.1 81.69 81.1C83.91 81.1 85.28 82.29 85.28 84.69ZM90.91 88.27C91.77 88.27 92.45 87.93 92.45 87.08C92.45 86.22 91.43 86.05 90.4 85.88C89.38 85.54 88.35 85.03 88.35 83.66C88.35 81.78 90.06 81.1 91.6 81.1C93.31 81.1 94.67 81.95 94.67 83.66L92.96 83.66C92.96 82.81 92.28 82.47 91.6 82.47C90.92 82.47 90.06 82.81 90.06 83.49C90.06 84.35 91.43 84.52 92.11 84.69C93.31 85.03 94.16 85.54 94.16 86.91C94.16 88.96 92.45 89.64 90.92 89.64C88.7 89.64 87.5 88.61 87.5 86.74L89.21 86.74C89.21 87.93 89.89 88.27 90.91 88.27ZM107.99 81.27L109.87 81.27L111.24 89.47L109.36 89.47L109.19 87.59L106.11 87.59L105.09 89.47L103.21 89.47L107.99 81.27ZM117.21 81.27L119.43 87.08L120.63 81.27L122.17 81.27L120.46 89.47L118.75 89.47L116.53 83.66L115.33 89.47L113.63 89.47L115.33 81.27L117.21 81.27ZM128.31 89.64C126.09 89.64 124.73 88.27 124.73 86.05C124.73 83.49 126.43 81.1 129.17 81.1C131.04 81.1 132.58 81.95 132.58 84L130.7 84C130.7 82.98 130.02 82.64 129.17 82.64C127.29 82.64 126.43 84.52 126.43 86.05C126.43 87.08 126.95 88.1 128.31 88.1C129.68 88.1 130.19 87.42 130.53 86.39L128.65 86.39L129 85.03L132.41 85.03L131.39 89.47L130.36 89.47L130.36 88.61L130.36 88.61C129.85 89.3 129 89.64 128.31 89.64ZM142.66 81.27L142.32 82.81L138.05 82.81L137.53 84.52L141.63 84.52L141.46 85.88L137.36 85.88L136.85 87.93L141.29 87.93L141.12 89.47L134.8 89.47L136.51 81.27L142.66 81.27ZM145.9 81.27L147.61 81.27L146.24 87.93L150.17 87.93L149.83 89.47L144.19 89.47L145.9 81.27ZM159.74 81.27L159.39 82.81L155.12 82.81L154.78 84.52L158.71 84.52L158.54 85.88L154.44 85.88L153.93 87.93L158.54 87.93L158.2 89.47L151.88 89.47L153.59 81.27L159.74 81.27ZM164.86 88.27C165.54 88.27 166.4 87.93 166.4 87.08C166.4 86.22 165.37 86.05 164.35 85.88C163.32 85.54 162.3 85.03 162.3 83.66C162.3 81.78 164.01 81.1 165.54 81.1C167.25 81.1 168.61 81.95 168.61 83.66L166.91 83.66C166.91 82.81 166.22 82.47 165.37 82.47C164.69 82.47 164.01 82.81 164.01 83.49C164.01 84.35 165.37 84.52 165.88 84.69C167.25 85.03 168.1 85.54 168.1 86.91C168.1 88.96 166.4 89.64 164.86 89.64C162.64 89.64 161.44 88.61 161.44 86.74L163.15 86.74C163.15 87.93 163.83 88.27 164.86 88.27Z" />
		<path id="Layer" fill-rule="evenodd" class="shp0" d="M79.13 86.05C79.13 84.52 79.98 82.64 81.69 82.64C83.06 82.64 83.57 83.66 83.57 84.69C83.57 86.22 82.72 88.1 81.01 88.1C79.64 88.1 79.13 87.08 79.13 86.05ZM108.67 83.15L109.02 86.22L106.8 86.22L108.67 83.15Z" />
		<path id="Layer" fill-rule="evenodd" class="shp1" d="M23.97 128.92C20.04 118.67 24.31 101.59 32 91.01C40.88 78.54 56.93 80.08 59.83 93.05C60.17 94.93 60.51 94.25 60.69 93.4C60.86 92.71 63.25 84 63.42 83.32C63.59 82.64 63.76 81.61 63.08 81.78C61.54 82.13 59.49 82.13 55.73 81.44C54.02 81.1 51.46 79.39 44.8 79.39C27.38 79.39 13.38 95.96 12.87 115.26C12.53 131.65 21.92 141.72 32.34 142.07C40.88 142.41 46.51 137.29 51.12 131.82L47.02 131.82C37.97 141.9 27.73 138.99 23.97 128.92L23.97 128.92Z" />
	</g>
</svg>